<svg xmlns="http://www.w3.org/2000/svg" viewBox="0 0 48 48">
  <circle cx="24" cy="24" r="22" fill="#FF6611"/>
  <path d="M24 4C13 4 4 13 4 24s9 20 20 20 20-9 20-20c0-3.3-.8-6.4-2.2-9.2C39.5 18 36.5 20 33 20c-5.5 0-9-4.5-9-9 0-3.5 2-6.5 5-8C27.5 2.3 25.8 2 24 2z" fill="#FF3811"/>
  <path d="M24 6c-1.5 0-3 .2-4.4.5C22.2 8.5 24 11.5 24 15c0 5-4 9-9 9-3 0-5.6-1.5-7.2-3.7C7.3 22 7 23 7 24c0 9.4 7.6 17 17 17s17-7.6 17-17S33.4 6 24 6z" fill="#FF9500"/>
  <circle cx="24" cy="24" r="8" fill="#fff" opacity=".15"/>
</svg>
