<svg xmlns="http://www.w3.org/2000/svg" viewBox="0 0 100 100"><defs><linearGradient id="a" x1="50" y1="0" x2="50" y2="100" gradientUnits="userSpaceOnUse"><stop offset="0" stop-color="#19D3FF"/><stop offset="1" stop-color="#1E5CE7"/></linearGradient></defs><circle cx="50" cy="50" r="48" fill="url(#a)"/><circle cx="50" cy="50" r="44" fill="none" stroke="#fff" stroke-width="1.5"/><g fill="#fff" font-family="Arial" font-size="5" text-anchor="middle"><text x="50" y="11">N</text><text x="50" y="95">S</text><text x="93" y="53">E</text><text x="8" y="53">W</text></g><g stroke="#fff" stroke-width=".5"><line x1="50" y1="8" x2="50" y2="12"/><line x1="50" y1="88" x2="50" y2="92"/><line x1="8" y1="50" x2="12" y2="50"/><line x1="88" y1="50" x2="92" y2="50"/><line x1="20.2" y1="20.2" x2="22.7" y2="22.7"/><line x1="77.3" y1="77.3" x2="79.8" y2="79.8"/><line x1="79.8" y1="20.2" x2="77.3" y2="22.7"/><line x1="22.7" y1="77.3" x2="20.2" y2="79.8"/></g><polygon points="50,18 54,48 50,50 46,48" fill="#fff"/><polygon points="50,82 46,52 50,50 54,52" fill="#ff3b30"/></svg>
